<?xml version="1.0" encoding="UTF-8" standalone="no"?>
<!DOCTYPE svg PUBLIC "-//W3C//DTD SVG 1.1//EN" "http://www.w3.org/Graphics/SVG/1.1/DTD/svg11.dtd">
<!-- Created with Vectornator (http://vectornator.io/) -->
<svg height="100%" stroke-miterlimit="10" style="fill-rule:nonzero;clip-rule:evenodd;stroke-linecap:round;stroke-linejoin:round;" version="1.1" viewBox="0 0 375 375" width="100%" xml:space="preserve" xmlns="http://www.w3.org/2000/svg" xmlns:vectornator="http://vectornator.io" xmlns:xlink="http://www.w3.org/1999/xlink">
<defs/>
<path d="M0 0L375 0L375 375L0 375L0 0Z" fill="#ffffff" fill-rule="nonzero" opacity="1" stroke="none"/>
<g id="Untitled" vectornator:layerName="Untitled">
<g opacity="1" vectornator:layerName="g">
<g opacity="1" vectornator:layerName="path">
<clipPath clip-rule="evenodd" id="ClipPath">
<path d="M0 0L375 0L375 375L0 375L0 0Z"/>
</clipPath>
<g clip-path="url(#ClipPath)">
<path d="M0 0L375 0L375 375L0 375L0 0Z" fill="#ffffff" fill-rule="nonzero" opacity="1" stroke="none" vectornator:layerName="path"/>
</g>
</g>
<g opacity="1" vectornator:layerName="path">
<clipPath clip-rule="evenodd" id="ClipPath_2">
<path d="M0 0L375 0L375 375L0 375L0 0Z"/>
</clipPath>
<g clip-path="url(#ClipPath_2)">
<path d="M0 0L375 0L375 375L0 375L0 0Z" fill="#ffffff" fill-rule="nonzero" opacity="1" stroke="none" vectornator:layerName="path"/>
</g>
</g>
<g opacity="1" vectornator:layerName="path">
<clipPath clip-rule="evenodd" id="ClipPath_3">
<path d="M49.9574 22.1547L325.043 22.1547L325.043 316.363L49.9574 316.363L49.9574 22.1547Z"/>
</clipPath>
<g clip-path="url(#ClipPath_3)">
<path d="M292.683 56.9771C282.448 49.4187 271.367 42.9554 259.752 37.7679C248.385 32.693 236.425 28.8024 224.204 26.2063C212.124 23.6384 199.723 22.3204 187.35 22.2876L186.886 22.2876C174.665 22.2876 162.416 23.5399 150.477 26.0117C138.242 28.5444 126.263 32.3717 114.868 37.388C103.227 42.5122 92.1107 48.9168 81.8366 56.4213C71.342 64.0853 61.6166 72.9758 52.9325 82.8466L49.9565 85.8249L50.381 90.3253C50.4044 90.5856 50.4326 90.8482 50.456 91.1109C53.3429 99.4503 56.4596 107.663 59.7944 115.716C69.1868 138.385 80.4084 160.066 93.3138 180.508C87.4509 167.354 82.5472 153.595 78.7246 139.567C74.6182 124.485 71.6633 108.721 69.9349 92.6868C77.0243 85.0041 84.836 78.0296 93.1707 71.9416C102.331 65.2532 112.235 59.5451 122.612 54.9767C132.773 50.5045 143.458 47.0923 154.375 44.8316C165.033 42.6248 175.969 41.5061 186.879 41.5061L187.301 41.5061C198.351 41.5366 209.423 42.7115 220.208 45.0051C231.111 47.3221 241.779 50.7906 251.917 55.3168C262.268 59.9391 272.144 65.6988 281.266 72.4364C289.868 78.7894 297.896 86.0829 305.142 94.1315C303.198 110.079 300.039 125.742 295.748 140.716C292.394 152.42 288.283 163.928 283.492 175.039C294.948 156.642 305.056 137.252 313.702 117.053C317.799 107.485 321.587 97.6797 325.043 87.701L321.657 83.7964C312.971 73.7825 303.224 64.7584 292.683 56.9771" fill="#000000" fill-rule="nonzero" opacity="1" stroke="none" vectornator:layerName="path"/>
<path d="M267.913 216.685C247.065 243.084 226.938 261.937 213.726 273.104C205.569 279.999 198.991 284.887 194.742 287.879C191.323 290.395 188.412 292.386 186.14 293.876C186.041 293.81 185.943 293.742 185.842 293.676L185.518 293.876L181.665 291.418C181.274 291.169 171.846 285.109 157.583 272.732C144.513 261.388 124.629 242.268 104.118 215.592C87.5095 193.993 72.932 170.708 60.5871 146.086C64.86 161.468 70.35 176.538 76.9211 190.904C88.3374 215.873 103.175 239.196 121.017 260.225C136.903 278.944 152.302 292.361 162.421 300.32C173.53 309.056 180.948 313.371 181.257 313.551L185.997 316.291L190.769 313.612C191.081 313.437 198.548 309.22 209.784 300.616C220.013 292.783 235.594 279.556 251.736 261.034C269.869 240.23 285.028 217.093 296.791 192.267C303.775 177.528 309.622 162.026 314.171 146.192C314.608 144.672 315.034 143.145 315.447 141.612C302.134 168.356 286.203 193.526 267.913 216.685" fill="#000000" fill-rule="nonzero" opacity="1" stroke="none" vectornator:layerName="path"/>
</g>
</g>
<g opacity="1" vectornator:layerName="path">
<clipPath clip-rule="evenodd" id="ClipPath_4">
<path d="M112.883 86.8379L261.458 86.8379L261.458 207.463L112.883 207.463L112.883 86.8379Z"/>
</clipPath>
<g clip-path="url(#ClipPath_4)">
<path d="M261.339 142.848L261.339 141.335L260.864 139.406C260.834 139.258 260.805 139.109 260.775 138.961C260.716 138.753 260.656 138.545 260.627 138.367L255.786 118.961L251.183 113.442C249.49 111.305 247.827 109.199 245.986 107.21L230.692 101.009L196.005 86.9436C195.233 90.267 193.778 93.3827 192.739 96.6468C190.957 101.929 188.908 107.121 187.274 112.433L188.7 134.065L196.985 137.952C201.974 140.296 206.964 142.67 211.982 144.984L211.982 145.133C202.539 142.403 193.184 139.376 183.711 136.795C183.206 127.715 182.849 118.635 182.226 109.584C170.406 114.866 158.498 120.059 146.797 125.608C142.045 135.163 136.937 144.569 132.186 154.124C131.562 155.192 130.998 156.26 130.434 157.358C129.454 164.688 128.206 172.017 127.226 179.346C126.068 188.663 124.643 197.922 123.811 207.269C130.582 207.328 137.353 207.18 144.124 207.358L153.627 183.055C153.716 182.788 153.805 182.521 153.895 182.254C154.013 182.017 154.132 181.779 154.221 181.542C154.904 180.088 155.439 178.575 155.973 177.061C162.507 176.171 169.1 175.637 175.692 175.251L206.013 181.779L218.486 207.328C224.93 207.328 231.404 207.358 237.878 207.328L225.376 173.589L225.376 173.56C223.802 169.465 222.198 165.4 220.535 161.364C220.446 160.919 220.268 160.029 220.209 159.584C230.068 158.515 239.928 157.358 249.817 156.527L249.668 157.625C248.035 163.323 246.639 169.109 245.273 174.865C243.105 174.391 240.848 174.064 238.769 173.263C237.671 171.038 237.344 168.515 236.423 166.201C233.78 167.536 231.286 169.079 228.791 170.622C231.137 174.717 233.216 178.931 235.711 182.907C237.314 184.42 239.423 185.37 241.294 186.527C242.244 187.269 243.432 186.824 244.501 186.675C247.025 186.408 249.52 185.934 251.985 185.399C254.984 179.198 258.251 173.144 261.22 166.943L261.22 166.32C261.458 159.139 261.399 151.928 261.458 144.717C261.369 144.065 261.369 143.441 261.339 142.848ZM238.057 132.225C240.314 130.741 242.66 129.347 245.006 127.982C245.303 128.753 245.57 129.525 245.837 130.296C246.045 131.364 246.134 132.462 246.283 133.531C243.521 133.145 240.789 132.7 238.057 132.225Z" fill="#000000" fill-rule="nonzero" opacity="1" stroke="none" vectornator:layerName="path"/>
<path d="M129.305 151.78C131.443 147.21 133.938 142.789 135.72 138.071C127.999 148.1 120.277 158.189 112.883 168.486C117.278 165.192 121.228 161.394 125.474 157.922C127.523 156.438 128.177 153.886 129.305 151.78Z" fill="#000000" fill-rule="nonzero" opacity="1" stroke="none" vectornator:layerName="path"/>
<path d="M174.653 178.664L157.755 179.524C156.746 188.782 155.261 197.981 154.548 207.269C161.943 207.269 169.337 207.269 176.761 207.269C176.761 202.996 176.168 198.752 175.811 194.479C175.692 189.227 175.039 183.945 174.653 178.664Z" fill="#000000" fill-rule="nonzero" opacity="1" stroke="none" vectornator:layerName="path"/>
<path d="M186.651 180.563L186.146 207.358L206.162 207.298L205.36 184.925L186.651 180.563Z" fill="#000000" fill-rule="nonzero" opacity="1" stroke="none" vectornator:layerName="path"/>
</g>
</g>
<g opacity="1" vectornator:layerName="path">
<clipPath clip-rule="evenodd" id="ClipPath_5">
<path d="M0 0L375 0L375 375L0 375L0 0Z"/>
</clipPath>
<g clip-path="url(#ClipPath_5)">
<g fill="#000000" opacity="1" stroke="none" vectornator:layerName="tspan">
<path d="M84.2622 332.421C84.4779 332.323 84.8163 332.21 85.2772 332.082C85.7381 331.955 86.204 331.891 86.6747 331.891C87.4985 331.891 88.185 332.014 88.7341 332.259C89.2833 332.504 89.6168 332.862 89.7345 333.333C89.9502 334.137 90.1513 334.887 90.3376 335.583C90.5239 336.28 90.7053 336.947 90.8819 337.584C91.0584 338.222 91.23 338.854 91.3967 339.482C91.5635 340.109 91.7253 340.766 91.8822 341.453L92.0293 341.453C92.2058 340.257 92.3627 339.114 92.5 338.025C92.6373 336.937 92.7648 335.868 92.8825 334.819C93.0002 333.769 93.1179 332.73 93.2355 331.7C93.3532 330.67 93.4709 329.626 93.5886 328.567C94.3143 328.155 95.0891 327.949 95.9128 327.949C96.6386 327.949 97.2662 328.106 97.7958 328.42C98.3254 328.733 98.5901 329.263 98.5901 330.008C98.5901 330.44 98.546 331.053 98.4577 331.847C98.3695 332.641 98.2518 333.529 98.1047 334.51C97.9576 335.49 97.786 336.52 97.5898 337.599C97.3937 338.678 97.1877 339.707 96.972 340.688C96.7562 341.669 96.5356 342.556 96.31 343.351C96.0845 344.145 95.8736 344.758 95.6775 345.189C95.3833 345.464 94.9027 345.69 94.2359 345.866C93.569 346.043 92.8825 346.131 92.1764 346.131C91.2545 346.131 90.4749 346.008 89.8374 345.763C89.2 345.518 88.8126 345.17 88.6753 344.719C88.4203 343.934 88.1457 343.002 87.8515 341.924C87.5573 340.845 87.2435 339.658 86.9101 338.364C86.6355 339.639 86.3511 340.884 86.0569 342.1C85.7626 343.316 85.4979 344.346 85.2625 345.189C84.9683 345.464 84.527 345.69 83.9385 345.866C83.3501 346.043 82.7029 346.131 81.9968 346.131C81.1141 346.131 80.3149 346.008 79.599 345.763C78.8831 345.518 78.4172 345.17 78.2015 344.719C78.025 344.366 77.8337 343.841 77.6278 343.145C77.4218 342.448 77.211 341.654 76.9952 340.762C76.7795 339.869 76.5588 338.903 76.3333 337.864C76.1077 336.824 75.9017 335.785 75.7154 334.745C75.5291 333.705 75.3575 332.69 75.2006 331.7C75.0436 330.709 74.926 329.802 74.8475 328.979C75.1221 328.724 75.5046 328.488 75.9949 328.272C76.4853 328.057 77.0148 327.949 77.5836 327.949C78.329 327.949 78.9419 328.111 79.4224 328.434C79.903 328.758 80.2021 329.302 80.3198 330.067C80.6336 332.068 80.8935 333.735 81.0994 335.069C81.3054 336.402 81.4721 337.496 81.5996 338.349C81.7271 339.202 81.8202 339.864 81.8791 340.335C81.9379 340.806 81.9968 341.178 82.0556 341.453L82.2027 341.453C82.3792 340.668 82.546 339.943 82.7029 339.276C82.8598 338.609 83.0216 337.937 83.1883 337.26C83.355 336.584 83.5267 335.858 83.7032 335.083C83.8797 334.309 84.066 333.421 84.2622 332.421Z"/>
<path d="M106.563 345.778C106.347 345.837 106.009 345.896 105.548 345.954C105.087 346.013 104.631 346.043 104.18 346.043C103.729 346.043 103.332 346.008 102.989 345.94C102.645 345.871 102.356 345.748 102.121 345.572C101.885 345.395 101.709 345.15 101.591 344.836C101.473 344.523 101.415 344.111 101.415 343.601L101.415 328.066C101.63 328.027 101.974 327.973 102.444 327.905C102.915 327.836 103.366 327.802 103.798 327.802C104.249 327.802 104.646 327.836 104.989 327.905C105.332 327.973 105.622 328.096 105.857 328.272C106.092 328.449 106.269 328.694 106.387 329.008C106.504 329.322 106.563 329.734 106.563 330.244L106.563 345.778Z"/>
<path d="M113.124 345.984C112.281 345.984 111.614 345.739 111.123 345.248C110.633 344.758 110.388 344.091 110.388 343.248L110.388 328.037C110.604 327.998 110.947 327.944 111.418 327.875C111.888 327.807 112.339 327.772 112.771 327.772C113.222 327.772 113.619 327.807 113.963 327.875C114.306 327.944 114.595 328.066 114.83 328.243C115.066 328.42 115.242 328.665 115.36 328.979C115.478 329.292 115.537 329.704 115.537 330.214L115.537 341.835L122.274 341.835C122.411 342.051 122.539 342.34 122.656 342.703C122.774 343.066 122.833 343.444 122.833 343.836C122.833 344.621 122.666 345.175 122.333 345.498C121.999 345.822 121.558 345.984 121.009 345.984L113.124 345.984Z"/>
<path d="M130.6 342.071C130.816 342.11 131.081 342.144 131.394 342.174C131.708 342.203 132.002 342.218 132.277 342.218C132.944 342.218 133.557 342.12 134.116 341.924C134.675 341.728 135.155 341.424 135.557 341.012C135.96 340.6 136.273 340.065 136.499 339.408C136.724 338.751 136.837 337.962 136.837 337.04C136.837 335.275 136.425 333.946 135.602 333.053C134.778 332.161 133.679 331.715 132.306 331.715C132.032 331.715 131.752 331.724 131.468 331.744C131.184 331.764 130.894 331.793 130.6 331.832L130.6 342.071ZM132.248 346.366C131.914 346.366 131.532 346.356 131.1 346.337C130.669 346.317 130.222 346.278 129.762 346.219C129.301 346.16 128.84 346.087 128.379 345.998C127.918 345.91 127.491 345.788 127.099 345.631C126.02 345.219 125.481 344.503 125.481 343.483L125.481 329.743C125.481 329.332 125.594 329.013 125.819 328.787C126.045 328.562 126.354 328.38 126.746 328.243C127.589 327.968 128.482 327.787 129.423 327.699C130.365 327.61 131.208 327.566 131.953 327.566C133.483 327.566 134.871 327.753 136.116 328.125C137.362 328.498 138.431 329.072 139.323 329.846C140.216 330.621 140.907 331.597 141.398 332.774C141.888 333.951 142.133 335.343 142.133 336.952C142.133 338.521 141.898 339.889 141.427 341.056C140.956 342.223 140.284 343.203 139.412 343.998C138.539 344.792 137.494 345.386 136.278 345.778C135.062 346.17 133.719 346.366 132.248 346.366Z"/>
<path d="M143.722 332.185C143.584 331.97 143.457 331.675 143.339 331.303C143.222 330.93 143.163 330.538 143.163 330.126C143.163 329.361 143.334 328.812 143.678 328.478C144.021 328.145 144.467 327.978 145.016 327.978L157.844 327.978C157.981 328.194 158.109 328.488 158.226 328.861C158.344 329.233 158.403 329.626 158.403 330.038C158.403 330.803 158.231 331.352 157.888 331.685C157.545 332.019 157.098 332.185 156.549 332.185L153.284 332.185L153.284 345.778C153.068 345.837 152.729 345.896 152.269 345.954C151.808 346.013 151.352 346.043 150.9 346.043C150.449 346.043 150.052 346.008 149.709 345.94C149.366 345.871 149.076 345.748 148.841 345.572C148.606 345.395 148.429 345.15 148.311 344.836C148.194 344.523 148.135 344.111 148.135 343.601L148.135 332.185L143.722 332.185Z"/>
<path d="M160.904 330.803C160.904 329.959 161.149 329.292 161.639 328.802C162.129 328.312 162.796 328.066 163.64 328.066L173.349 328.066C173.486 328.282 173.608 328.567 173.716 328.92C173.824 329.273 173.878 329.645 173.878 330.038C173.878 330.783 173.716 331.313 173.393 331.626C173.069 331.94 172.642 332.097 172.113 332.097L165.905 332.097L165.905 334.833L172.525 334.833C172.662 335.049 172.785 335.329 172.893 335.672C173 336.015 173.054 336.383 173.054 336.775C173.054 337.52 172.897 338.05 172.584 338.364C172.27 338.678 171.848 338.835 171.319 338.835L165.905 338.835L165.905 341.924L173.466 341.924C173.604 342.139 173.726 342.424 173.834 342.777C173.942 343.13 173.996 343.503 173.996 343.895C173.996 344.64 173.834 345.175 173.51 345.498C173.187 345.822 172.76 345.984 172.231 345.984L163.64 345.984C162.796 345.984 162.129 345.739 161.639 345.248C161.149 344.758 160.904 344.091 160.904 343.248L160.904 330.803Z"/>
<path d="M185.941 331.656C184.43 331.656 183.273 332.117 182.469 333.039C181.665 333.96 181.263 335.265 181.263 336.952C181.263 338.658 181.709 339.972 182.601 340.894C183.494 341.816 184.695 342.277 186.205 342.277C187.01 342.277 187.691 342.169 188.25 341.953C188.809 341.737 189.344 341.492 189.854 341.218C190.187 341.492 190.447 341.821 190.633 342.203C190.82 342.586 190.913 343.032 190.913 343.542C190.913 344.346 190.467 345.028 189.574 345.587C188.682 346.146 187.323 346.425 185.499 346.425C184.185 346.425 182.95 346.239 181.792 345.866C180.635 345.493 179.625 344.92 178.762 344.145C177.899 343.37 177.217 342.39 176.717 341.203C176.217 340.016 175.967 338.599 175.967 336.952C175.967 335.422 176.207 334.073 176.688 332.906C177.168 331.739 177.825 330.754 178.659 329.949C179.493 329.145 180.468 328.537 181.586 328.125C182.704 327.713 183.901 327.507 185.176 327.507C186.98 327.507 188.378 327.802 189.368 328.39C190.359 328.979 190.854 329.734 190.854 330.656C190.854 331.165 190.726 331.607 190.472 331.979C190.217 332.352 189.922 332.646 189.589 332.862C189.079 332.529 188.535 332.244 187.956 332.009C187.377 331.773 186.706 331.656 185.941 331.656Z"/>
<path d="M209.595 345.778C209.379 345.837 209.041 345.896 208.58 345.954C208.119 346.013 207.663 346.043 207.212 346.043C206.761 346.043 206.364 346.008 206.02 345.94C205.677 345.871 205.388 345.748 205.153 345.572C204.917 345.395 204.741 345.15 204.623 344.836C204.505 344.523 204.446 344.111 204.446 343.601L204.446 339.011L198.798 339.011L198.798 345.778C198.582 345.837 198.244 345.896 197.783 345.954C197.322 346.013 196.866 346.043 196.415 346.043C195.963 346.043 195.566 346.008 195.223 345.94C194.88 345.871 194.59 345.748 194.355 345.572C194.12 345.395 193.943 345.15 193.825 344.836C193.708 344.523 193.649 344.111 193.649 343.601L193.649 328.066C193.865 328.027 194.208 327.973 194.679 327.905C195.149 327.836 195.601 327.802 196.032 327.802C196.483 327.802 196.88 327.836 197.224 327.905C197.567 327.973 197.856 328.096 198.092 328.272C198.327 328.449 198.503 328.694 198.621 329.008C198.739 329.322 198.798 329.734 198.798 330.244L198.798 334.951L204.446 334.951L204.446 328.066C204.662 328.027 205.005 327.973 205.476 327.905C205.947 327.836 206.398 327.802 206.83 327.802C207.281 327.802 207.678 327.836 208.021 327.905C208.364 327.973 208.654 328.096 208.889 328.272C209.124 328.449 209.301 328.694 209.419 329.008C209.536 329.322 209.595 329.734 209.595 330.244L209.595 345.778Z"/>
<path d="M223.099 328.596C223.433 328.4 223.938 328.214 224.614 328.037C225.291 327.861 225.973 327.772 226.659 327.772C227.64 327.772 228.508 327.914 229.263 328.199C230.018 328.483 230.504 328.929 230.719 329.538C231.072 330.557 231.455 331.744 231.867 333.097C232.279 334.451 232.69 335.848 233.102 337.29C233.514 338.732 233.916 340.154 234.309 341.556C234.701 342.958 235.044 344.199 235.338 345.278C235.103 345.552 234.75 345.773 234.279 345.94C233.808 346.106 233.249 346.19 232.602 346.19C232.131 346.19 231.734 346.15 231.411 346.072C231.087 345.994 230.822 345.876 230.616 345.719C230.41 345.562 230.244 345.356 230.116 345.101C229.989 344.846 229.876 344.552 229.778 344.219L229.248 342.188L223.923 342.188C223.766 342.777 223.609 343.385 223.452 344.013C223.295 344.64 223.138 345.248 222.982 345.837C222.707 345.935 222.418 346.018 222.114 346.087C221.81 346.155 221.442 346.19 221.01 346.19C220.01 346.19 219.27 346.018 218.789 345.675C218.309 345.332 218.068 344.856 218.068 344.248C218.068 343.973 218.108 343.699 218.186 343.424C218.264 343.15 218.353 342.826 218.451 342.453C218.588 341.924 218.779 341.267 219.024 340.482C219.27 339.698 219.539 338.849 219.834 337.937C220.128 337.025 220.442 336.089 220.775 335.127C221.108 334.166 221.422 333.259 221.716 332.406C222.011 331.553 222.28 330.793 222.526 330.126C222.771 329.459 222.962 328.949 223.099 328.596ZM226.63 332.391C226.355 333.215 226.046 334.132 225.703 335.142C225.36 336.152 225.051 337.177 224.776 338.217L228.424 338.217C228.15 337.158 227.87 336.123 227.586 335.113C227.302 334.103 227.042 333.196 226.806 332.391L226.63 332.391Z"/>
<path d="M240.487 345.984C239.644 345.984 238.977 345.739 238.486 345.248C237.996 344.758 237.751 344.091 237.751 343.248L237.751 328.037C237.967 327.998 238.31 327.944 238.781 327.875C239.251 327.807 239.702 327.772 240.134 327.772C240.585 327.772 240.982 327.807 241.325 327.875C241.669 327.944 241.958 328.066 242.193 328.243C242.429 328.42 242.605 328.665 242.723 328.979C242.841 329.292 242.899 329.704 242.899 330.214L242.899 341.835L249.637 341.835C249.774 342.051 249.902 342.34 250.019 342.703C250.137 343.066 250.196 343.444 250.196 343.836C250.196 344.621 250.029 345.175 249.696 345.498C249.362 345.822 248.921 345.984 248.372 345.984L240.487 345.984Z"/>
<path d="M252.844 330.803C252.844 329.959 253.089 329.292 253.579 328.802C254.07 328.312 254.736 328.066 255.58 328.066L265.289 328.066C265.426 328.282 265.549 328.567 265.657 328.92C265.764 329.273 265.818 329.645 265.818 330.038C265.818 330.783 265.657 331.313 265.333 331.626C265.009 331.94 264.583 332.097 264.053 332.097L257.845 332.097L257.845 334.833L264.465 334.833C264.602 335.049 264.725 335.329 264.833 335.672C264.941 336.015 264.995 336.383 264.995 336.775C264.995 337.52 264.838 338.05 264.524 338.364C264.21 338.678 263.788 338.835 263.259 338.835L257.845 338.835L257.845 341.924L265.406 341.924C265.544 342.139 265.666 342.424 265.774 342.777C265.882 343.13 265.936 343.503 265.936 343.895C265.936 344.64 265.774 345.175 265.451 345.498C265.127 345.822 264.7 345.984 264.171 345.984L255.58 345.984C254.736 345.984 254.07 345.739 253.579 345.248C253.089 344.758 252.844 344.091 252.844 343.248L252.844 330.803Z"/>
<path d="M274.086 340.129L274.086 345.778C273.87 345.837 273.532 345.896 273.071 345.954C272.61 346.013 272.154 346.043 271.703 346.043C271.251 346.043 270.854 346.008 270.511 345.94C270.168 345.871 269.883 345.748 269.658 345.572C269.432 345.395 269.261 345.15 269.143 344.836C269.025 344.523 268.966 344.111 268.966 343.601L268.966 329.743C268.966 329.332 269.079 329.013 269.305 328.787C269.53 328.562 269.839 328.38 270.231 328.243C270.898 328.008 271.673 327.836 272.556 327.728C273.438 327.62 274.38 327.566 275.38 327.566C278.087 327.566 280.127 328.135 281.5 329.273C282.873 330.41 283.559 331.95 283.559 333.892C283.559 335.108 283.245 336.147 282.618 337.01C281.99 337.873 281.245 338.54 280.382 339.011C281.088 339.972 281.784 340.874 282.471 341.718C283.157 342.561 283.696 343.326 284.089 344.013C283.893 344.699 283.535 345.224 283.015 345.587C282.495 345.949 281.912 346.131 281.264 346.131C280.833 346.131 280.46 346.082 280.146 345.984C279.832 345.886 279.558 345.748 279.323 345.572C279.087 345.395 278.871 345.18 278.675 344.925C278.479 344.67 278.293 344.395 278.116 344.101L275.645 340.129L274.086 340.129ZM275.939 336.216C276.684 336.216 277.273 336.025 277.704 335.642C278.136 335.26 278.352 334.696 278.352 333.951C278.352 333.205 278.111 332.641 277.631 332.259C277.15 331.876 276.39 331.685 275.351 331.685C275.057 331.685 274.821 331.695 274.645 331.715C274.468 331.734 274.272 331.764 274.056 331.803L274.056 336.216L275.939 336.216Z"/>
<path d="M285.619 332.185C285.481 331.97 285.354 331.675 285.236 331.303C285.118 330.93 285.06 330.538 285.06 330.126C285.06 329.361 285.231 328.812 285.574 328.478C285.918 328.145 286.364 327.978 286.913 327.978L299.741 327.978C299.878 328.194 300.005 328.488 300.123 328.861C300.241 329.233 300.3 329.626 300.3 330.038C300.3 330.803 300.128 331.352 299.785 331.685C299.441 332.019 298.995 332.185 298.446 332.185L295.18 332.185L295.18 345.778C294.965 345.837 294.626 345.896 294.165 345.954C293.704 346.013 293.248 346.043 292.797 346.043C292.346 346.043 291.949 346.008 291.606 345.94C291.262 345.871 290.973 345.748 290.738 345.572C290.502 345.395 290.326 345.15 290.208 344.836C290.091 344.523 290.032 344.111 290.032 343.601L290.032 332.185L285.619 332.185Z"/>
</g>
</g>
</g>
</g>
</g>
</svg>
